Coordinates
version=1
nRows=9
nColumns=24
inDegrees=yes

Units are S.I. units (second, meters, Newtons, ...)
Angles are in degrees.

endheader
time	pelvis_tilt	pelvis_list	pelvis_rotation	pelvis_tx	pelvis_ty	pelvis_tz	hip_flexion_r	hip_adduction_r	hip_rotation_r	knee_angle_r	ankle_angle_r	subtalar_angle_r	mtp_angle_r	hip_flexion_l	hip_adduction_l	hip_rotation_l	knee_angle_l	ankle_angle_l	subtalar_angle_l	mtp_angle_l	lumbar_extension	lumbar_bending	lumbar_rotation
      0.94566667	     -4.48616631	      2.13530250	     -2.31006198	     -0.11405407	      1.01118546	      0.27420380	     -6.53554946	     -0.36646054	      1.98192322	    -17.77219456	      5.18549797	     -4.88267988	     16.97749943	     18.50361962	      1.96349630	     -0.86220090	      4.53242282	      1.54232814	     -3.70894637	      1.76648957	     -9.83671395	      2.33293777	      6.59505362
      0.94983333	     -4.49124495	      2.13625236	     -2.33368492	     -0.10843217	      1.01043544	      0.27376086	     -6.64844203	     -0.43561947	      1.82058741	    -18.17380030	      4.98949345	     -4.79023157	     17.05288768	     18.49689649	      2.03761713	     -0.70354497	      4.64852181	      1.43255159	     -3.57485135	      1.78106778	     -9.78385837	      2.32916067	      6.58987655
      0.95400000	     -4.48541922	      2.18957606	     -2.36524746	     -0.10274772	      1.00965038	      0.27326910	     -6.72789840	     -0.58697589	      1.55126115	    -18.67959536	      4.95737653	     -4.34981563	     17.34454203	     18.46867134	      2.16870265	     -0.48648549	      4.70515960	      1.32325084	     -3.57542325	      1.83617791	     -9.70850863	      2.25160916	      6.50688836
      0.95816667	     -4.46070699	      2.20208208	     -2.37198727	     -0.09704755	      1.00894139	      0.27276471	     -6.85885391	     -0.67708085	      1.34639217	    -19.09548870	      4.62833460	     -4.29816331	     21.64225410	     18.40788369	      2.26569397	     -0.07315495	      4.71584476	      1.00460095	     -3.95511051	      2.65407136	     -9.68304054	      2.25634741	      6.48445676
      0.96233333	     -4.47247254	      2.30325773	     -2.39831122	     -0.09132595	      1.00814806	      0.27226405	     -6.88186819	     -0.87740270	      1.08249784	    -19.67289817	      4.53884053	     -3.98777469	     21.75200759	     18.46107775	      2.44954623	      0.04763896	      4.49587620	      0.91480731	     -3.81097995	      2.67332894	     -9.59236485	      2.14359012	      6.40403482
      0.96650000	     -4.45154547	      2.38053872	     -2.40239147	     -0.08558021	      1.00742439	      0.27173189	     -6.94759090	     -1.04948491	      0.81494905	    -20.22671950	      4.35038037	     -3.71874111	     21.94539246	     18.46446452	      2.61792252	      0.33554343	      4.24139123	      0.69555909	     -3.97359102	      2.70694632	     -9.53920091	      2.05038207	      6.33161720
      0.97066667	     -4.44740996	      2.44759378	     -2.38445361	     -0.07980401	      1.00669151	      0.27117521	     -7.00570681	     -1.20194863	      0.56754755	    -20.74346834	      3.98038029	     -3.61011261	     24.78177595	     18.48368376	      2.78220123	      0.77574217	      3.92437748	      0.40747131	     -4.39948783	      3.24018604	     -9.46786239	      1.97009403	      6.28911833
      0.97483333	     -4.39642391	      2.59294969	     -2.39406324	     -0.07400116	      1.00601885	      0.27063391	     -7.05731406	     -1.45621467	      0.27958314	    -21.38733133	      3.80235971	     -3.34307175	     24.89562105	     18.47669975	      3.02510771	      1.01144575	      3.50883414	      0.10045359	     -4.56721669	      3.25662385	     -9.44789315	      1.79747658	      6.17252899
      0.97900000	     -4.37340668	      2.71992229	     -2.37145391	     -0.06819313	      1.00530584	      0.27004037	     -7.07515646	     -1.68521164	     -0.02121428	    -22.03310291	      3.51583749	     -3.12089685	     25.09585691	     18.50605189	      3.26027958	      1.40084431	      3.02644782	     -0.24255187	     -4.98688285	      3.28898096	     -9.39000111	      1.64837875	      6.07421273
